<svg width="29" height="23" viewBox="0 0 29 23" fill="none" xmlns="http://www.w3.org/2000/svg">
<path d="M17.1887 4.41468C16.0224 -1.83279 12.0752 0.568513 10.2473 2.5501C6.93777 0.373065 6.17074 3.98514 6.20092 6.06331C5.26078 5.56434 2.98683 5.10549 1.41211 7.26186C-0.162613 9.41823 0.550585 11.2322 1.10403 11.8696C-0.845482 15.9297 1.93538 17.7897 3.56949 18.2122C6.32001 23.7155 10.8301 21.9041 12.7413 20.3104C15.1355 24.7026 19.1918 21.2203 20.9207 18.9301C25.3831 19.6326 27.54 16.1422 28.0606 14.3092C28.8571 11.7237 25.9834 10.4572 24.4469 10.1472C25.415 4.25617 20.0115 3.87093 17.1887 4.41468Z" fill="#FFE491"/>
<path d="M15.4805 1.51319C15.5133 1.54466 15.622 1.67728 15.6711 1.74446C15.6086 1.67226 15.3704 1.40132 15.4805 1.51319ZM23.0076 4.74722C22.9359 4.70465 22.8632 4.66407 22.7898 4.6254C22.9934 4.74358 23.2574 4.92366 23.4252 5.06856C23.4527 5.09198 23.3744 5.03969 23.4399 5.0945C23.5048 5.15011 23.5013 5.12871 23.5953 5.21153C23.708 5.29547 24.134 5.78537 24.2458 5.97808C24.7159 6.67266 24.9545 7.50504 25.0093 8.29729C24.9062 7.47244 25.0039 8.30502 25.0084 8.53666C25.0038 8.58972 25.0639 8.57991 25.0124 9.39711C24.9596 9.90725 24.9861 9.4555 24.8905 10.2201L24.5359 9.70654C24.5579 9.71056 24.5812 9.71493 24.6058 9.71969C24.5807 9.71334 24.5577 9.70767 24.5367 9.70255L24.8945 10.2207C24.9576 9.89824 24.9488 9.98953 24.9136 10.2239L24.5405 9.6836C24.6977 9.71363 24.9165 9.76682 25.1118 9.82429C25.2015 9.84278 25.8903 10.0842 26.1811 10.2312C26.2815 10.2776 26.4393 10.342 26.5698 10.4138C26.6593 10.4632 26.7234 10.5073 26.8535 10.5875C27.454 10.9627 28.0235 11.4586 28.3739 12.1615C28.1369 11.7747 28.5225 12.4846 28.5111 12.5316C28.5773 12.7032 28.2467 11.9364 28.3757 12.2403C28.5732 12.6555 28.6654 13.1295 28.6436 13.5864C28.6664 13.2097 28.6436 14.0871 28.5658 14.2306C28.575 14.2178 28.5592 14.3025 28.5143 14.449L28.5173 14.4389C28.4031 14.9499 27.8106 16.049 27.6768 16.2373C27.6402 16.287 27.8908 15.9677 27.3508 16.737C27.2895 16.8189 27.3053 16.7826 27.2737 16.826C27.2557 16.8507 27.1588 17.0245 27.0132 17.171C26.9533 17.2188 27.2817 16.8655 26.5548 17.6387C26.9026 17.3846 25.4513 18.637 25.0901 18.734C25.1542 18.7038 25.2164 18.6733 25.2801 18.6405C24.9726 18.8047 24.9156 18.8352 24.8459 18.8701C24.5586 19.0093 24.147 19.1532 23.8625 19.2325C23.5281 19.3232 23.5319 19.343 23.1344 19.4058C23.2286 19.3947 23.3232 19.3813 23.4185 19.3656C23.1443 19.4213 22.8698 19.4583 22.5926 19.4785C23.2296 19.3936 22.4531 19.4946 22.4036 19.4897C22.3223 19.4941 22.439 19.4798 22.3027 19.4863C22.2885 19.4864 22.3096 19.4972 22.0974 19.5005C21.6612 19.4991 21.727 19.4828 21.5463 19.4734C21.5292 19.4712 21.5891 19.4882 21.2701 19.4594C21.0141 19.4335 20.887 19.4115 20.8459 19.4052L21.3045 19.2199C21.291 19.2374 21.2924 19.2348 21.3035 19.2191L20.8461 19.404C20.9305 19.4172 21.2907 19.4568 21.3145 19.4565C21.3645 19.454 21.0255 19.4126 21.8767 19.4685C21.5851 19.4553 21.564 19.4342 21.5305 19.4324C21.501 19.4339 21.0109 19.3833 20.9836 19.3762C20.74 19.3452 20.9523 19.3872 20.9047 19.382C20.8987 19.3813 20.8795 19.3783 20.8509 19.3735L21.279 19.2006C21.1888 19.3214 20.9063 19.6621 20.8518 19.7634C20.6468 19.9561 20.943 19.6299 21.2242 19.2543C21.2629 19.1974 20.94 19.5976 20.9198 19.6177C20.4905 20.1229 20.7452 19.8573 20.6619 19.9769C20.6182 20.0387 20.4219 20.2298 20.6069 20.0577C20.1997 20.5028 20.4384 20.225 20.4111 20.2529C20.3693 20.2942 20.2267 20.4505 20.2076 20.4682C20.1796 20.4949 20.2689 20.3941 20.1598 20.5008C20.1418 20.5185 19.9758 20.7021 20.2049 20.4809C19.9028 20.7808 19.9328 20.7601 19.813 20.8444C19.6253 21.0724 19.64 20.9698 19.5526 21.0449C19.3176 21.2415 19.4041 21.2065 19.3932 21.2186C19.32 21.3047 18.633 21.8179 18.4491 21.93C18.51 21.869 19.009 21.5398 19.1074 21.4502C19.4475 21.1665 18.6038 21.8203 18.8423 21.6016C18.7388 21.6879 18.6323 21.7727 18.5241 21.8548C18.3043 21.9735 18.6047 21.7858 18.0311 22.1377C17.9456 22.2092 18.4378 21.8904 18.3433 21.9612C18.2908 22.0066 17.953 22.2062 17.9468 22.2113C17.9431 22.2209 18.2477 22.037 18.2023 22.0711C18.1196 22.1675 16.9301 22.7195 17.8226 22.2764C17.5764 22.4041 17.4324 22.435 17.212 22.5333C17.0611 22.586 17.9312 22.3477 16.6476 22.7594C16.6185 22.7595 17.1633 22.5999 17.1734 22.5865C17.1921 22.5779 17.0851 22.5827 17.0681 22.5868C17.0383 22.5939 16.7062 22.7219 16.3169 22.7899C15.9295 22.8649 15.4918 22.8499 15.3425 22.8217C15.402 22.8359 15.1285 22.8193 14.8347 22.7364C14.5375 22.6581 14.2382 22.5041 14.1812 22.4752C14.1495 22.4604 14.2596 22.5311 14.226 22.515C14.0008 22.4242 13.5108 22.0398 13.3211 21.8319C13.1015 21.6066 13.1244 21.6351 13.1124 21.6242C13.0247 21.5228 13.1001 21.5994 13.0466 21.5368C12.9473 21.4472 12.4716 20.7387 12.4621 20.699C12.4554 20.6883 12.5153 20.8145 12.4202 20.6547C12.4101 20.6372 12.4143 20.636 12.3543 20.5214L13.0237 20.649C12.9652 20.6954 12.8635 20.779 12.7001 20.903C12.1734 21.2932 13.0753 20.6459 12.8645 20.8175C12.5157 21.0574 12.5355 21.0575 12.4398 21.1228C12.4056 21.1453 12.1543 21.2939 11.8754 21.4507C12.0748 21.3356 12.2668 21.2136 12.4548 21.0825C12.2695 21.2086 11.8941 21.4371 11.7299 21.5179C11.6494 21.5584 11.7077 21.5133 11.5347 21.6017C11.497 21.6183 11.3677 21.7313 11.815 21.4759C11.8578 21.4668 11.6368 21.5781 11.5379 21.6301C11.5229 21.6381 11.4715 21.6876 11.3338 21.7378C11.2965 21.7429 11.6328 21.5587 10.7397 21.9629C10.7105 21.9752 10.8162 21.9441 10.7878 21.9563C10.7686 21.9657 10.5314 22.0458 10.5045 22.0545C10.4778 22.0646 10.5959 22.034 10.5643 22.0462C10.4012 22.1094 10.175 22.1441 10.5161 22.0394C10.401 22.0731 10.2866 22.1035 10.1697 22.1313C10.2996 22.1208 9.99112 22.189 9.8279 22.2229C8.7782 22.4117 9.48346 22.3036 9.30368 22.3427C9.00823 22.388 9.23256 22.3309 8.79151 22.3696C8.74993 22.3628 9.28873 22.3999 8.23913 22.3724C8.39413 22.3814 8.54934 22.3835 8.7038 22.3792C8.61466 22.3633 8.14535 22.3704 8.10786 22.3624C7.69744 22.3167 7.97335 22.362 7.36645 22.2497C7.31288 22.2382 7.19839 22.2033 7.08381 22.1716C6.61055 22.045 7.70507 22.3536 7.73925 22.339C7.74785 22.3794 6.56546 22.0459 6.54155 21.9935C6.37902 21.9209 7.0597 22.1897 6.93409 22.1256C6.91211 22.1162 6.48118 21.976 6.06195 21.7385C5.63901 21.5081 5.23439 21.1789 5.11173 21.0661C4.81583 20.7983 4.72786 20.6469 4.69732 20.6699C4.6433 20.563 4.56465 20.512 4.53098 20.4741C4.1391 20.0155 4.14177 20.0063 3.85042 19.5962C3.7868 19.5033 3.74239 19.4141 3.72024 19.3827C3.70727 19.3641 3.72004 19.4064 3.65807 19.3142C3.58587 19.2136 3.28679 18.6802 3.16598 18.4139L3.45657 18.649C3.38103 18.6278 3.32708 18.6101 3.31242 18.6044C3.27941 18.5914 3.36748 18.6176 3.4589 18.64L3.1743 18.4098C3.22278 18.5043 3.27629 18.6031 3.26051 18.5607C3.2341 18.5094 3.20795 18.4578 3.18201 18.4059L3.46105 18.6316C3.17673 18.5576 2.90868 18.4615 2.64087 18.3379C2.50671 18.2746 2.5786 18.3001 2.52175 18.2725C2.49531 18.2664 2.04742 18.0224 2.06716 18.0314C2.08581 18.0483 2.43461 18.2602 2.75552 18.3955C3.07564 18.5352 3.3593 18.6149 3.1568 18.5589C3.07755 18.5377 2.81979 18.4192 2.85454 18.4541C1.56325 17.9356 0.394256 16.8249 0.0940895 15.3761C0.277083 16.1902 0.787947 17.0333 1.44571 17.582C1.53248 17.6628 1.84845 17.8984 1.81675 17.8603C1.22175 17.4547 0.599447 16.7429 0.336418 16.0754C0.327633 16.0545 0.369135 16.1273 0.336916 16.0487C0.267849 15.9044 0.107191 15.411 0.101427 15.3236C0.0968466 15.3087 0.178923 15.5924 0.165015 15.5033C0.129387 15.2765 0.0767767 15.228 0.0487529 15.0337C-0.0014873 14.8801 0.0323474 13.8704 0.0868631 13.6316C0.103917 13.3676 -0.010468 14.3579 0.000763909 14.2892C0.0112646 13.6037 0.197753 12.9356 0.415556 12.3593C0.419444 12.3491 0.37714 12.4339 0.425052 12.3051C0.511522 12.0786 0.550827 12.0259 0.598849 11.9215C0.620226 11.8757 0.663033 11.7817 0.711647 11.6812L0.775353 12.155C0.649794 12.011 0.549759 11.8475 0.531327 11.8116C0.527363 11.8045 0.591834 11.8828 0.600796 11.8947C0.710532 12.0502 0.763016 12.1242 0.78047 12.1505L0.717756 11.6841C0.715557 11.6876 0.713952 11.6903 0.712947 11.6923C0.683068 11.7532 0.661168 11.8156 0.635857 11.8705C0.594072 11.9617 0.568188 12.0049 0.516045 12.1283C0.480499 12.2136 0.524783 12.1356 0.490986 12.2175C0.476689 12.2473 0.331563 12.5614 0.347291 12.6043C0.350206 12.6078 0.491693 12.1863 0.734211 11.692L0.794253 12.1386C0.136818 11.3922 0.039363 10.1897 0.0467084 10.0146C0.0500826 10.2723 0.0789102 10.5309 0.134187 10.784C0.010716 10.2693 0.0273419 9.63372 0.0665526 9.59378C0.143405 8.63751 0.554255 7.76233 1.09282 7.02869C1.64463 6.26271 2.46252 5.62293 3.41735 5.38363C3.75456 5.31197 3.57091 5.34975 4.12992 5.28342C3.98424 5.28768 3.83848 5.29974 3.69354 5.31991C3.98071 5.21668 5.25846 5.29233 5.45096 5.38183C5.47637 5.38942 5.51814 5.37059 5.82431 5.46642C6.0949 5.55837 6.12977 5.59408 6.26961 5.6612C6.30749 5.68013 6.34771 5.70054 6.38347 5.71936L5.81156 6.06897C5.81005 5.99023 5.80884 5.91919 5.80951 5.89453C5.81034 5.86641 5.8187 5.85586 5.82125 5.79041C5.83091 5.58229 5.80198 5.74829 5.83706 5.54441C5.83583 5.59485 5.83506 5.64375 5.83462 5.69524C5.84504 5.44408 5.8841 5.10361 5.86616 5.47214C5.86393 5.53592 5.85855 5.48082 5.85626 5.52826C5.84585 5.75493 5.84594 5.93563 5.84836 6.06843L6.36621 5.75187C5.80771 5.49446 6.00047 5.58155 6.36237 5.75911L5.85656 6.06831C5.85263 5.81438 5.86393 5.48138 5.87812 5.25259C5.88881 5.08622 6.02562 4.15779 6.04832 4.12828C6.06126 4.08653 6.03511 4.24589 6.09 4.04158C6.06786 3.99345 6.50421 2.78527 6.35647 3.22417C6.31384 3.31332 6.12735 3.89335 6.10274 4.03699C6.18757 3.70718 6.4535 2.93173 6.51726 2.85159C6.69404 2.51718 6.2106 3.50841 6.59963 2.75328C6.95817 2.19289 6.60271 2.70949 6.73985 2.49014C6.7796 2.42868 6.91879 2.24652 7.07761 2.10079C7.23306 1.95333 7.40311 1.8488 7.38702 1.84434C7.62882 1.70019 7.49315 1.79563 7.5234 1.77858C7.54461 1.74735 8.06981 1.55289 8.25112 1.56704C8.27218 1.56582 8.20715 1.58436 8.22897 1.58342C8.27228 1.5651 8.78689 1.58874 8.80056 1.603C8.81327 1.60377 8.6973 1.57611 8.74596 1.5802C8.80599 1.57406 9.27515 1.69641 9.29144 1.70763C9.33752 1.70587 8.75981 1.56423 8.85574 1.57969C9.12884 1.62453 9.54519 1.77456 9.69964 1.8399C9.66013 1.82285 9.42529 1.72421 9.33776 1.69508C9.3906 1.68432 9.89312 1.91011 9.71485 1.84554C9.82801 1.89066 9.75468 1.85115 9.82023 1.87496C9.83588 1.87989 9.98256 1.95538 10.013 1.96928C10.0168 1.9699 9.86802 1.88386 9.90017 1.89674C9.96229 1.91454 10.3956 2.17194 10.4294 2.20175C10.5258 2.26876 10.1713 2.05084 10.1409 2.04596C10.1353 2.04155 10.4226 2.23633 10.4275 2.24369C10.4359 2.26325 10.1135 2.05212 10.1451 2.08815C10.2236 2.13727 10.303 2.18946 10.3836 2.24481C10.0815 2.04951 9.45395 1.74369 9.26656 1.71258C9.80674 1.88452 10.2834 2.2045 10.2637 2.22837C10.255 2.23827 10.0565 2.12898 10.061 2.13678C10.0836 2.16194 10.3632 2.31888 10.3747 2.32943C10.3828 2.33564 10.3863 2.33883 10.3859 2.33944C10.3859 2.33944 10.3859 2.33944 10.3859 2.33944C10.3783 2.33916 9.99239 2.10966 9.96251 2.10203C9.92515 2.08761 10.0957 2.21271 10.089 2.21619C10.0888 2.21464 9.79136 2.05806 9.88554 2.12054C9.98378 2.18201 10.22 2.32556 10.2289 2.33374C10.2729 2.36383 9.84497 2.11767 9.82738 2.1185C9.81785 2.11365 10.054 2.25684 10.0532 2.26184C10.0611 2.26923 9.87601 2.17088 9.80315 2.14523C9.74816 2.12441 9.89615 2.20886 9.8692 2.19605C9.85386 2.18221 9.43167 1.98088 9.41026 1.98065C9.37806 1.96957 9.47486 2.01836 9.45916 2.0144C9.44109 2.00921 9.29605 1.94967 9.3143 1.96049C9.33878 1.96123 9.84385 2.22979 9.83256 2.24181C9.82408 2.24685 9.29109 1.95328 9.77292 2.25054C9.77588 2.25199 9.89891 2.3148 9.90249 2.3177C9.97037 2.36803 9.58278 2.16339 10.047 2.42809C9.17583 1.9681 9.9296 2.37999 9.79162 2.33111C9.74141 2.30887 9.3928 2.14859 9.3922 2.15424C9.42051 2.17754 9.53377 2.21862 9.56991 2.24242C9.58708 2.25071 9.27806 2.13005 9.34342 2.167C9.37489 2.1792 9.7051 2.33382 9.71303 2.34283C9.83446 2.41563 9.67773 2.34096 9.70285 2.36024C9.71755 2.37036 9.91404 2.48057 9.91421 2.48265C9.9258 2.48892 9.65415 2.35362 9.6028 2.33656C9.56127 2.31969 9.70826 2.40093 9.67976 2.38846C9.50534 2.30406 9.14227 2.12839 9.48488 2.31448C9.50679 2.32617 9.64177 2.39191 9.64395 2.39417C9.72105 2.44437 9.47667 2.32141 9.42735 2.31097C9.34492 2.288 9.70655 2.44702 9.4048 2.31852C9.62631 2.42892 9.74727 2.49313 9.99022 2.63846C9.30351 2.24902 9.02162 2.18605 9.80533 2.57739C9.55575 2.43705 9.58127 2.47948 9.50477 2.44082C9.45683 2.41195 9.10237 2.24782 9.25388 2.3575C9.27245 2.36891 9.49097 2.45928 9.41843 2.43943C8.89667 2.21823 9.40594 2.43714 9.40411 2.44273C9.39541 2.45544 9.07711 2.29788 8.72621 2.2361C8.3754 2.16289 8.02901 2.2484 7.93845 2.29416C7.71717 2.3846 7.56847 2.55371 7.53082 2.58952C7.40462 2.71554 7.50148 2.60292 7.47046 2.62859C7.42837 2.64067 7.1388 3.09025 7.13553 3.12285C7.0815 3.21444 7.12093 3.11313 7.11526 3.1226C7.02877 3.22298 6.77258 3.94701 6.7343 4.16614C6.74091 4.15976 6.85798 3.74082 6.79794 4.00614C6.73335 4.31614 6.70056 4.32857 6.69583 4.33606C6.57915 4.89718 6.5287 5.48249 6.53607 6.05845L6.53831 6.6286L6.04378 6.35938C5.29883 5.97969 4.36445 5.87314 3.5511 6.10075C3.56596 6.08473 4.46876 5.9579 4.49364 5.99016C4.55581 6.00081 4.19467 5.98337 3.81032 6.06021C3.42331 6.12839 3.0319 6.31191 2.94914 6.35496C3.07701 6.29287 3.21009 6.23919 3.34451 6.19557C3.1221 6.28797 2.63199 6.51642 2.37053 6.76227C2.28544 6.83796 2.45777 6.70482 2.4562 6.7086C2.36124 6.79281 2.20325 6.92935 2.31136 6.81656C2.08655 7.03714 2.11321 6.99869 1.94798 7.17893C1.93987 7.18879 2.01458 7.11419 1.89198 7.26425C1.86567 7.29698 1.79491 7.38418 1.72091 7.48737C1.62547 7.61915 1.53531 7.76191 1.51928 7.79576C1.50664 7.81984 1.67308 7.63072 1.66705 7.58958C1.6929 7.55479 1.7158 7.52452 1.73581 7.49824C1.96178 7.21358 1.76633 7.42819 1.88432 7.28106C1.90864 7.26037 1.85753 7.31007 2.21051 6.94212C2.16286 7.01528 1.84368 7.34766 1.73925 7.50076C1.72379 7.52162 1.7121 7.538 1.70509 7.54856C1.66919 7.6032 1.69204 7.5753 1.7458 7.50554C1.86126 7.34563 2.1602 7.01859 2.23225 6.93642C2.1968 7.00416 2.27469 6.89473 2.42062 6.77558C2.58161 6.64844 2.51637 6.70976 2.60432 6.64472C2.85321 6.47618 2.74087 6.5288 2.96333 6.42053C2.72605 6.49056 3.33856 6.21759 3.5332 6.1953C3.23327 6.28544 2.9483 6.42285 2.6894 6.5999C2.70567 6.59191 2.72191 6.58412 2.73814 6.57652C2.66935 6.62064 2.60038 6.6688 2.53473 6.71844C2.5439 6.7085 2.55311 6.69864 2.56235 6.68886C2.23231 6.96265 2.15847 7.04458 2.13158 7.06566C2.00121 7.19909 1.87598 7.34706 1.755 7.51226C1.57423 7.75856 1.41209 8.02275 1.28721 8.27496C1.2607 8.34036 1.27302 8.29651 1.08275 8.76677C1.02735 8.92006 1.0629 8.77044 1.01049 8.94593C0.979552 9.17385 0.960602 9.16505 0.945397 9.23031C0.905792 9.42092 0.903545 9.5388 0.901166 9.55612C0.872911 9.7928 0.874953 10.1398 0.919997 10.3935C0.920816 10.398 0.909858 10.2642 0.933223 10.4299C0.937018 10.4831 1.00328 11.0311 1.26319 11.4009C1.20458 11.3027 1.15256 11.1971 1.10766 11.0879C1.13205 11.1559 1.27741 11.4434 1.42072 11.5946L1.60211 11.8087L1.4821 12.0512C1.3829 12.2664 1.32667 12.417 1.37858 12.3095C1.40735 12.251 1.44805 12.1539 1.49225 12.056L1.61548 11.807L1.42922 11.5873C1.35019 11.503 1.27766 11.3927 1.27973 11.3663C1.30679 11.4127 1.36084 11.4986 1.43377 11.5833L1.62264 11.8062L1.49769 12.0586C1.15723 12.666 0.867925 13.9591 0.890942 14.0789C0.887835 14.0994 0.892389 13.9727 0.888443 14.0008C0.879584 14.0243 0.857494 14.4536 0.86146 14.5073C0.85929 14.541 0.853992 14.3543 0.851595 14.3688C0.839928 14.3819 0.86495 14.9159 0.889696 14.9413C0.862063 14.8146 0.851525 14.4474 0.869033 14.6394C0.870854 14.6641 0.873681 14.7903 0.878966 14.8209C0.913744 15.096 0.84648 14.2704 0.882096 14.1376C0.837021 14.6651 0.942919 15.4747 1.25497 15.9853C1.36084 16.2013 1.07973 15.6754 1.19729 15.9209C1.46352 16.4204 1.28046 16.0462 1.28939 16.0615C1.35704 16.1817 1.61584 16.5927 1.64995 16.5656C1.78542 16.7217 1.73265 16.6802 1.95181 16.8777C1.92461 16.85 1.8978 16.8218 1.87142 16.7931C2.10842 17.0158 2.67751 17.4318 2.63548 17.4032C2.5032 17.3456 2.20911 17.1216 2.18688 17.1008C2.15421 17.0699 2.00706 17.0378 1.68261 16.651C1.51014 16.5286 2.25324 17.2117 1.90193 16.915C2.10008 17.1648 3.24918 17.8 3.44691 17.8022C3.46848 17.806 3.37938 17.7597 3.66304 17.8504L3.83149 17.8961L3.90377 18.0452C3.9058 18.0496 3.90786 18.0541 3.90996 18.0587C3.93891 18.1218 3.92352 18.0948 3.89847 18.0478L3.82734 17.9011L3.66156 17.8562C3.59976 17.8425 3.49796 17.8133 3.53578 17.828C3.55506 17.8354 3.59843 17.8497 3.65887 17.8666L3.81982 17.9102L3.88888 18.0526C4.09123 18.7066 5.66731 20.6831 6.17823 20.8481C6.20864 20.8681 6.1933 20.8672 6.22329 20.8865C6.31319 20.9486 6.66191 21.1324 6.84206 21.2098C6.48142 21.0317 7.1917 21.3541 7.38699 21.3912C7.67467 21.4709 7.65695 21.4739 7.78346 21.5023C8.27573 21.6185 9.06412 21.554 9.45744 21.5014C9.43112 21.4837 10.1346 21.3753 10.4404 21.2518C10.6823 21.1667 11.0129 20.9978 10.6914 21.1218C11.0986 20.9578 11.51 20.7331 11.8556 20.5072C11.9123 20.47 11.8392 20.5284 11.9351 20.4644C11.9434 20.4586 11.9522 20.4431 12.0343 20.3857C12.6933 19.8944 12.3782 20.1394 12.5034 20.0519C12.508 20.0484 12.5126 20.0448 12.517 20.0414L12.8511 19.7694L13.0489 20.1428C13.0852 20.2147 13.1133 20.2664 13.1349 20.3044C13.105 20.2534 13.0747 20.2001 13.0444 20.1452L12.8495 19.7773L12.5203 20.0453C12.1948 20.3219 11.8163 20.5639 11.7038 20.6312C11.7924 20.597 12.2379 20.3007 12.5245 20.0504L12.8474 19.7875L13.0386 20.1484C13.11 20.2766 13.1723 20.3792 13.2088 20.4411C13.2136 20.4491 13.1876 20.427 13.1925 20.4351C13.1926 20.4352 13.1927 20.4354 13.1928 20.4356C13.236 20.529 13.6255 21.0491 13.5574 20.9328C13.5362 20.901 13.353 20.6704 13.1711 20.3654C13.2224 20.4461 13.1957 20.3789 13.2048 20.3931C13.309 20.5666 13.5986 20.9837 13.7138 21.1043C13.7402 21.1344 13.7443 21.1276 13.7487 21.1324C13.8566 21.2507 13.7966 21.2199 13.9251 21.3151C14.1048 21.5344 13.5519 20.9356 13.5868 20.9783C13.5944 20.9976 13.892 21.3781 14.2668 21.632C14.6359 21.8977 15.0654 21.9973 15.0642 21.9851C15.0694 21.9888 15.0916 21.9978 15.1384 22.0118C15.241 22.0564 15.7303 22.09 15.8165 22.0699C15.8309 22.0685 15.8241 22.0483 15.8418 22.0471C15.8845 22.0581 16.4923 21.9784 16.7099 21.8763C16.5888 21.9136 16.4687 21.9445 16.3466 21.9692C17.073 21.7698 16.953 21.7648 16.7143 21.8527C16.7024 21.8567 16.6906 21.8598 16.6793 21.8634C16.4911 21.9224 16.2504 21.9679 16.2464 21.9661C16.2386 21.9654 16.5435 21.9023 16.8144 21.8006C17.0864 21.7026 17.3248 21.5841 17.2158 21.648C17.1864 21.6741 16.6248 21.8831 16.9069 21.789C16.9571 21.7766 17.3103 21.6133 17.3279 21.6024C17.4597 21.5615 16.6849 21.9096 16.7828 21.8746C16.9725 21.7946 17.2179 21.696 17.4288 21.5819C17.5255 21.5296 17.5427 21.5076 17.5546 21.501C17.7287 21.4003 17.6356 21.4647 17.694 21.431C17.7271 21.415 18.0515 21.1826 18.0049 21.2488C19.0659 20.4521 18.3108 21.0588 17.6158 21.461C17.8323 21.3304 18.2517 21.0553 18.4286 20.9144C18.4927 20.8647 18.4485 20.8857 18.5554 20.8002C18.7884 20.6419 19.7859 19.7194 20.0103 19.4407C19.8667 19.6053 19.9185 19.5657 20.0303 19.4398C20.1404 19.3142 20.036 19.4091 20.0564 19.3837C20.0785 19.3612 20.4844 18.8891 20.6189 18.7023L20.7604 18.5194L20.9795 18.5566C21.0091 18.5613 21.0323 18.5646 21.0471 18.5666C21.0234 18.5633 21.0009 18.5601 20.9794 18.557L20.7606 18.5198L20.6192 18.7025C20.3361 19.0768 20.3944 19.0181 20.6328 18.7128L20.7678 18.5383L20.9768 18.5738C21.0115 18.5795 21.0487 18.5852 21.0879 18.5909C21.0508 18.5873 21.0134 18.5835 20.9759 18.5793L20.7701 18.5444L20.6372 18.7161C20.6178 18.7445 20.598 18.7731 20.5779 18.8018C20.5968 18.7765 20.6179 18.7484 20.6404 18.7185L20.7718 18.5487L20.9753 18.5832C21.2895 18.637 21.7818 18.6836 21.9353 18.6782C21.9615 18.6779 21.8675 18.6662 21.8822 18.666C22.0285 18.6718 22.5229 18.6617 22.5473 18.652C22.5662 18.6485 22.355 18.654 22.4327 18.6452C22.4477 18.6436 22.6551 18.644 22.8517 18.614C22.9257 18.6028 22.8798 18.5998 22.8983 18.5967C23.0522 18.5684 22.9623 18.6022 23.2426 18.5458C23.4452 18.5009 23.5923 18.4507 23.8661 18.3659C22.9553 18.6044 23.7267 18.4202 24.0887 18.2676C24.1465 18.2417 24.0931 18.2557 24.4378 18.1075C23.7173 18.4527 24.6591 18.0427 24.8325 17.9185C24.8425 17.9126 24.852 17.9207 24.9409 17.8673C24.9482 17.8626 24.9341 17.8633 25.015 17.812C25.7642 17.2909 25.2872 17.6267 25.4337 17.533C25.4963 17.4946 25.832 17.1976 25.9149 17.1117C25.9348 17.0926 25.9315 17.1072 26.0079 17.0317C26.1419 16.8984 26.2508 16.7664 26.3324 16.6712C26.3415 16.6596 26.3536 16.6693 26.5009 16.482C26.5422 16.4288 26.5848 16.3669 26.5234 16.4396C26.3238 16.6833 25.9271 17.1316 25.6448 17.3462C25.3973 17.5518 26.155 16.876 26.1773 16.8214C26.1907 16.8072 26.0585 16.9571 26.1979 16.8096C26.3163 16.6844 26.5054 16.4287 26.6601 16.2226C26.6726 16.2074 26.8056 16.0491 26.8008 16.0567C26.7975 16.0661 26.6152 16.3248 26.6455 16.2906C26.6502 16.2865 26.768 16.1235 26.7858 16.1032C26.8082 16.0792 26.8953 16.0321 26.92 15.9965C26.9831 15.9053 26.935 15.9601 26.9749 15.8995C27.0642 15.7737 27.3358 15.3076 27.3256 15.283C27.2841 15.3629 27.243 15.4385 27.1984 15.5171C27.4293 15.0807 27.3217 15.2615 27.3518 15.1987C27.3812 15.1302 27.3858 15.1558 27.4562 15.0048C27.4802 14.9752 27.7222 14.3276 27.7032 14.3364C27.5929 14.6995 27.6178 14.5597 27.6131 14.5766C27.59 14.6366 27.5669 14.7239 27.5335 14.8044C27.2786 15.3837 27.5219 14.7946 27.458 14.9295C27.437 14.9749 27.4016 15.0718 27.3915 15.0918C27.3597 15.1561 27.3499 15.1512 27.3299 15.1941C27.2827 15.294 27.3537 15.1851 27.3504 15.1933C27.3173 15.2886 27.1217 15.623 27.2221 15.4027C27.1479 15.5278 27.1572 15.5513 27.0926 15.6469C26.9618 15.8361 27.1413 15.5437 27.1814 15.4606C27.3276 15.1632 27.3835 15.0822 27.5542 14.6463C27.6132 14.4918 27.6645 14.2982 27.6838 14.227C27.685 14.2227 27.6876 14.2148 27.6911 14.2043C27.7359 14.0966 27.8252 13.7574 27.7739 13.739C27.8028 13.5798 27.8396 13.3227 27.8115 13.1579C27.7869 13.0112 27.7742 13.0621 27.7716 13.0484C27.768 13.0271 27.726 12.8543 27.7016 12.7984C27.6748 12.7331 27.6816 12.768 27.6364 12.6654C27.514 12.4144 27.5207 12.4164 27.5096 12.3894C27.3348 12.094 27.3906 12.2372 27.3457 12.1761C27.3372 12.0991 26.5709 11.396 26.3469 11.3109C26.4269 11.3552 26.5055 11.4017 26.5823 11.4503C26.4557 11.3471 26.295 11.2749 26.3034 11.255C26.2585 11.2657 25.972 11.0822 25.8765 11.0404C25.8398 11.0231 25.8401 11.0298 25.7942 11.0085C25.6162 10.9219 25.1959 10.757 25.0916 10.7293C24.6455 10.5897 25.7672 11.0026 25.8377 11.0678C25.6795 10.9666 24.67 10.6313 25.1271 10.8042C25.1969 10.8304 25.3277 10.8621 25.3672 10.8769C25.6346 10.9785 25.4205 10.9084 25.4411 10.9179C25.4753 10.9331 25.6541 10.9939 25.698 11.0162C25.7124 11.0241 25.6126 10.9894 25.8568 11.1051C25.7376 11.0471 25.0286 10.7626 24.9274 10.7462C24.8924 10.7414 25.1014 10.8116 24.4791 10.628C24.486 10.632 24.4929 10.6361 24.4994 10.6401C24.4503 10.6289 24.4007 10.6183 24.3538 10.6089L23.9041 10.5126L23.9821 10.0708C24.0344 9.74701 24.068 9.43425 24.0811 9.12447C24.0852 9.16295 24.0853 9.36513 24.0961 9.11199C24.1004 8.96225 24.0838 9.07273 24.084 9.05923C24.0834 8.98719 24.1164 8.36771 23.9774 7.73823C23.8546 7.10701 23.5094 6.53767 23.3762 6.37457C23.2945 6.25254 23.0098 5.96709 22.9836 5.95006C22.8606 5.81197 22.3167 5.43163 22.1887 5.38109C22.1142 5.34284 22.1799 5.38892 22.1137 5.35414C22.0518 5.32227 22.1207 5.34587 22.1025 5.33616C21.9724 5.21667 20.694 4.82831 20.3629 4.80862C20.5634 4.82124 21.5094 5.0493 21.4867 5.05229C21.4836 5.04904 21.2618 4.97009 21.213 4.96144C21.1383 4.92953 20.8625 4.88696 20.7149 4.8536C20.6979 4.8504 20.7684 4.84577 20.5009 4.79552C20.4086 4.77854 20.1639 4.75255 19.9173 4.71737C19.562 4.63667 17.6432 4.72828 17.5252 4.80835C17.5211 4.80916 17.7855 4.77507 17.6082 4.80828C17.3739 4.85501 17.5786 4.79004 17.3044 4.83665C17.3002 4.8374 17.2886 4.83958 17.2712 4.84296L16.8344 4.92171L16.76 4.49472C16.7325 4.32256 16.5887 3.71134 16.5765 3.6877C16.5019 3.45996 16.6642 4.13412 16.6544 4.12105C16.6495 4.10389 16.5073 3.54138 16.5003 3.52735C16.4954 3.5045 16.6384 3.93977 16.4827 3.41293C16.4994 3.479 16.5125 3.53485 16.5266 3.59663C16.4544 3.35468 16.4557 3.31679 16.439 3.25847C16.3838 3.07555 16.2932 2.87625 16.2008 2.58899C16.1744 2.50929 16.2373 2.63349 16.2342 2.62381C16.2036 2.52562 16.1275 2.42173 16.0826 2.28832C16.0752 2.27651 16.25 2.57061 15.9685 2.0491C15.9867 2.08425 16.0047 2.12021 16.0225 2.15701C15.9882 2.07944 15.6614 1.59684 15.6039 1.54929C15.4606 1.3851 15.5999 1.51281 15.444 1.35701C15.5388 1.45504 15.0344 1.0442 15.0638 1.06897C14.9842 1.02448 14.4934 0.809168 14.2259 0.815229C14.0643 0.797355 13.7214 0.845233 13.6688 0.858366C13.6036 0.869413 13.6201 0.850499 13.5014 0.874398C13.4679 0.878979 13.1177 0.981839 12.8112 1.11005C12.7521 1.13334 12.619 1.17176 12.7251 1.11409C12.9061 1.01111 13.2755 0.903307 13.2661 0.894941C13.2558 0.874495 12.7712 1.06806 12.6459 1.13783C12.0593 1.43892 12.3879 1.24873 12.3701 1.24984C12.3247 1.25859 12.0134 1.45067 12.0012 1.46029C11.9452 1.49058 12.1586 1.34228 12.159 1.33506C12.1572 1.32262 11.8504 1.50231 11.9164 1.4559C12.0091 1.38541 12.2958 1.22848 12.3137 1.2197C12.5438 1.08082 12.2113 1.23984 12.1193 1.287C12.0911 1.30035 12.194 1.23148 12.1715 1.24406C11.8298 1.43957 12.1162 1.31158 11.8962 1.45189C11.702 1.58119 11.9418 1.40002 11.9346 1.40506C11.9238 1.40956 11.6933 1.56781 11.6557 1.59079C11.6319 1.59488 12.2242 1.17107 12.1967 1.18321C11.9977 1.30369 11.8052 1.43525 11.6186 1.57542C11.5934 1.57199 11.8748 1.38793 11.9038 1.36923C11.9601 1.32771 11.7935 1.4291 11.7977 1.4207C11.7993 1.4151 11.9836 1.2778 11.8087 1.38947C11.7488 1.4287 11.6317 1.52101 11.4185 1.67135C12.1403 1.12392 11.6283 1.48606 11.6021 1.4964C11.5773 1.50721 11.922 1.24186 11.4963 1.55367C11.4593 1.54259 11.499 1.53798 11.6174 1.44565C11.7651 1.33604 11.4046 1.56242 11.9695 1.19669C11.9269 1.20014 11.4819 1.51065 11.4609 1.53084C11.4403 1.54484 11.5328 1.46678 11.4968 1.49053C11.0748 1.7781 11.3607 1.57512 11.2329 1.65201C11.2195 1.6576 10.8466 1.96335 11.126 1.72491C11.6443 1.29567 11.903 1.17796 11.9737 1.07781C11.5354 1.32046 11.0846 1.7297 10.973 1.82979C10.7987 1.9829 10.9735 1.8179 10.9505 1.83481C10.9418 1.84053 10.7936 1.97331 10.7915 1.97491C10.6567 2.04013 11.4631 1.38901 11.7405 1.2184C11.6653 1.26289 11.5908 1.30875 11.5171 1.35584C11.6129 1.28621 11.7105 1.2186 11.8096 1.15352C11.337 1.46331 11.788 1.15782 11.8946 1.06168C11.9182 1.03917 11.6089 1.24855 11.9596 1.00624C11.6915 1.17049 11.7723 1.11141 11.543 1.27993C11.5394 1.26289 12.0663 0.896013 12.2944 0.779527C11.5112 1.21925 11.9666 0.983434 11.3247 1.4127C11.2187 1.50981 11.5115 1.28624 11.4894 1.30704C11.4073 1.3762 11.1951 1.51696 10.9826 1.73517C10.9483 1.77105 11.1158 1.64511 10.8812 1.84708C10.8551 1.86904 10.7014 1.99186 10.7028 1.99C10.7156 1.96432 10.8624 1.83726 10.8663 1.82918C10.8689 1.82107 10.7092 1.96755 10.7079 1.9682C10.6948 1.96327 10.8394 1.84282 10.8167 1.85845C10.7675 1.89055 10.168 2.40226 10.9355 1.71973C10.31 2.29972 10.8551 1.79398 11.1115 1.58352C11.1769 1.52908 11.1886 1.51012 11.2826 1.43426C11.4038 1.33641 11.5539 1.23372 11.6197 1.18717C11.6916 1.13844 11.2707 1.39682 11.8685 1.00731C11.5477 1.18196 11.0491 1.58743 10.7794 1.8185C10.2311 2.28458 11.1308 1.4586 11.2434 1.39295C11.2699 1.37165 11.1739 1.43374 11.1914 1.41943C11.2156 1.39026 11.7866 0.990171 11.8457 0.953656C11.8989 0.909524 11.6305 1.09215 11.6089 1.09891C11.5874 1.09446 12.3074 0.647635 11.9121 0.880388C11.6359 1.0379 11.185 1.40382 11.0967 1.44801C11.4565 1.15858 11.8407 0.894402 12.2544 0.674459C12.0227 0.78575 11.7997 0.910886 11.5833 1.04662C12.0162 0.751464 12.422 0.540654 12.8956 0.352801C11.7586 0.795796 13.2478 0.165822 13.2884 0.203598C13.2921 0.193735 12.8166 0.316401 12.7455 0.347641C13.1192 0.11829 14.498 0.00705267 13.6937 0.050578C13.8379 0.0322728 14.1961 0.0118316 14.1922 0.0145281C14.1421 -0.0247856 13.3717 0.0744386 13.4972 0.053676C13.6372 0.0135283 13.8446 0.00303536 14.0738 2.59705e-06C14.665 0.00407506 14.8839 0.088704 15.098 0.144859C15.3014 0.215456 15.5482 0.280374 15.9929 0.682223C15.9774 0.664621 15.9622 0.647647 15.945 0.629226C16.9122 1.52601 17.2674 2.71167 17.5324 3.83074C17.5644 3.94629 17.6067 4.11823 17.6504 4.3285L17.0999 3.95352C17.6452 3.83144 18.4064 3.75747 18.8407 3.75354C18.9624 3.74645 19.5515 3.76816 19.5966 3.7765C19.6787 3.78275 19.2254 3.76773 19.4298 3.78161C19.4733 3.77141 20.4719 3.86752 20.4021 3.85777C20.2901 3.83886 19.9391 3.80878 19.8816 3.80308C19.6799 3.78249 20.3538 3.80427 21.0888 3.97389C21.8285 4.12698 22.5925 4.50676 22.661 4.5486C22.5997 4.5112 22.5377 4.47505 22.475 4.44013C22.6576 4.53154 22.8356 4.63343 23.0076 4.74722ZM15.896 2.0182C15.834 1.9348 15.7072 1.73031 15.61 1.62054C15.4861 1.4674 15.2146 1.29291 15.3478 1.35041C15.5558 1.5339 15.7358 1.75942 15.896 2.0182ZM19.2633 4.71441C19.049 4.70571 19.2163 4.68048 19.3909 4.69651C19.4103 4.69874 19.5514 4.73035 19.2633 4.71441ZM16.6833 4.25068C16.6857 4.25882 16.7221 4.44599 16.7228 4.45343C16.746 4.62304 16.6359 4.06034 16.6833 4.25068ZM24.0365 9.8434C24.0656 9.61158 24.0226 9.77482 24.0104 9.92257C24.0097 9.93184 24.0346 9.85871 24.0365 9.8434ZM24.0583 9.67899C24.1017 9.50533 24.0856 9.12912 24.0676 9.42179C24.0664 9.45144 24.0569 9.68817 24.0583 9.67899ZM18.5003 4.72063C18.5235 4.71077 18.7458 4.70356 18.8395 4.70378C18.8372 4.71047 18.5928 4.71323 18.5003 4.72063ZM23.4065 6.3991C23.4301 6.3914 22.96 5.86593 22.9037 5.85305C23.0031 5.91332 23.4079 6.38725 23.4065 6.3991ZM24.059 8.0938C24.059 8.07297 24.0166 7.82884 24.0108 7.83608C24.0281 7.95507 24.0653 8.17786 24.059 8.0938ZM26.0851 11.2214C26.0965 11.2287 25.9501 11.0984 26.3312 11.3478C26.3864 11.3849 26.178 11.2707 26.1973 11.2844C26.2391 11.3113 26.272 11.3322 26.2987 11.3486C26.1176 11.2414 25.9189 11.1441 25.9006 11.1328C25.8153 11.0786 26.0803 11.2173 26.0851 11.2214ZM27.5041 12.4602C27.5323 12.4905 27.6372 12.7187 27.6502 12.7739C27.6527 12.7832 27.6261 12.7484 27.6622 12.8529C27.6885 12.9379 27.6677 12.8055 27.7107 12.9736C27.7475 13.1456 27.6847 12.9191 27.6861 12.9352C27.6951 12.9536 27.7505 13.2184 27.7366 13.2124C27.7339 13.2053 27.6851 12.9223 27.6557 12.8555C27.6246 12.7695 27.6522 12.8772 27.601 12.7336C27.5658 12.6441 27.6037 12.6858 27.5967 12.6666C27.597 12.6482 27.4211 12.352 27.5043 12.4607C27.5042 12.4605 27.5042 12.4604 27.5041 12.4602ZM26.3476 11.3776C26.3339 11.3698 26.3179 11.3604 26.2987 11.3486C26.3152 11.3583 26.3315 11.3679 26.3476 11.3776ZM16.1738 2.53796C16.2124 2.63892 16.0758 2.35021 16.0253 2.24305C16.0343 2.24182 16.1678 2.51665 16.1738 2.53796ZM26.5192 11.4702C26.7682 11.6541 26.5848 11.5209 26.3476 11.3776C26.424 11.4213 26.4334 11.4106 26.5192 11.4702ZM21.213 4.96144C21.2255 4.96651 21.233 4.97105 21.233 4.97489C21.2003 4.96124 21.1978 4.95835 21.213 4.96144ZM21.9003 5.21555C22.1327 5.30653 21.6684 5.10241 21.6661 5.11608C21.667 5.11822 21.8918 5.21062 21.9003 5.21555ZM24.4257 10.6049C24.4053 10.5992 24.7038 10.6359 24.3604 10.5761L23.9427 10.4866L24.0152 10.0762C24.0194 10.042 24.024 10.0021 24.0288 9.95603C24.0172 10.0264 24.0102 10.062 24.0072 10.0749L23.9333 10.4929L24.3588 10.5841C24.3665 10.5863 24.3652 10.5866 24.3584 10.5859L23.9312 10.4944L24.0053 10.0746C24.0078 10.0471 24.0223 9.94053 24.02 9.94308C24.0166 9.94647 24.0079 9.9987 23.9955 10.073L23.9197 10.5021L24.3565 10.5956C24.5007 10.6239 24.7322 10.6813 24.8005 10.7044C24.8844 10.7107 24.4994 10.6207 24.4263 10.605C24.4261 10.605 24.4259 10.6049 24.4257 10.6049ZM26.9778 15.6773C27.0045 15.6166 27.1085 15.4422 27.1723 15.3201C27.151 15.3812 27.0507 15.5586 26.9778 15.6773ZM0.96783 10.5875C1.07317 11.0123 1.19737 11.22 1.20605 11.2568C1.22259 11.2905 1.11494 11.1555 1.00239 10.772C0.995871 10.7571 0.951195 10.5368 0.96783 10.5875ZM3.09766 17.5959C3.17078 17.6447 2.90628 17.536 2.74453 17.4384C2.70796 17.4174 2.5795 17.3265 2.73683 17.4107C2.72043 17.4253 2.9662 17.5617 3.09766 17.5959ZM26.6679 11.5633C26.7483 11.6069 26.9568 11.7873 27.0547 11.8896C26.989 11.8331 26.7724 11.6409 26.6679 11.5633ZM0.908193 13.805C0.892027 13.9011 0.898921 13.9656 0.901893 13.9496C0.915005 13.8787 0.933685 13.6962 0.908193 13.805ZM25.8908 11.0939C25.8836 11.0803 26.2198 11.2507 26.2325 11.2801C26.1652 11.2369 25.8987 11.1004 25.8908 11.0939ZM27.1118 15.4542C27.1439 15.4045 26.9983 15.675 26.9454 15.7508C26.9444 15.7423 27.0929 15.4876 27.1118 15.4542ZM0.972177 15.3183C0.990241 15.3987 1.05774 15.5969 1.07225 15.6148C1.0864 15.6405 0.986309 15.3535 0.972177 15.3183ZM7.35771 2.87938C7.36264 2.87053 7.20733 3.13808 7.14394 3.26978C7.0123 3.50716 7.33414 2.87037 7.35771 2.87938ZM1.12592 12.9025C1.23156 12.6384 1.1153 12.9326 1.13354 12.9247C1.19168 12.74 1.36979 12.3085 1.2362 12.6043C1.21066 12.6614 1.15469 12.8181 1.12592 12.9025ZM1.04434 13.1467C1.03933 13.1778 1.00091 13.3741 1.04547 13.207C1.06651 13.1296 1.09045 12.9974 1.04434 13.1467ZM6.69727 4.8185C6.63684 5.06476 6.85074 3.9252 6.88675 3.90534C6.89272 3.88912 6.897 3.87866 6.89973 3.87279C6.90669 3.83176 6.97442 3.62896 6.99294 3.61101C6.96971 3.66854 6.91596 3.83539 6.90977 3.85428C6.90677 3.86249 6.90445 3.8686 6.90273 3.87277C6.87455 3.9407 6.69424 4.76654 6.69727 4.8185ZM5.41623 6.1897C5.68617 6.25037 5.71678 6.30523 5.69522 6.29593C5.41202 6.20879 5.60121 6.25193 5.59351 6.24746C5.57414 6.23719 5.36834 6.187 5.41705 6.18993C5.41678 6.18985 5.4165 6.18978 5.41623 6.1897ZM6.64711 5.21144C6.64685 5.19966 6.67374 4.95601 6.67633 4.94653C6.70789 4.74884 6.63309 5.43551 6.64711 5.21144ZM27.7677 13.7572C27.7403 13.9121 27.756 13.758 27.7692 13.655C27.7697 13.647 27.7878 13.6184 27.7677 13.7572ZM1.01038 13.2802C0.973218 13.3141 0.8151 14.3103 0.860007 14.2475C0.825439 14.1647 1.06933 13.0427 1.01038 13.2802ZM4.71503 19.3335C4.61145 19.1884 4.7358 19.3363 4.79217 19.421C4.81231 19.4516 4.7427 19.3721 4.71503 19.3335ZM25.4286 10.8743C25.2495 10.8149 25.2961 10.8004 25.4456 10.8695C25.4514 10.8722 25.4357 10.8767 25.4286 10.8743ZM3.96414 18.0698C4.23043 18.5593 4.17866 18.5463 3.91736 18.0384L3.84214 17.8833L3.66684 17.8357C3.59067 17.8159 3.50061 17.7886 3.40172 17.7527C3.42614 17.7586 3.45033 17.7641 3.47427 17.7693C2.62558 17.4396 3.41196 17.7642 3.62844 17.8081C3.65871 17.8159 3.66794 17.8166 3.67198 17.8159L3.85653 17.8659L3.93572 18.0292C3.94137 18.0341 3.94004 18.0236 3.96391 18.0692C3.96399 18.0694 3.96407 18.0696 3.96414 18.0698ZM5.32625 20.0687C5.72435 20.5232 4.92624 19.6892 4.74672 19.4078C4.95275 19.6607 5.21646 19.9741 4.87319 19.5282C5.40131 20.1662 5.17723 19.9008 5.19482 19.9313C5.21916 19.9606 5.30861 20.0487 5.32625 20.0687ZM4.35936 18.8018C4.34044 18.7748 4.20738 18.5354 4.16167 18.4535C4.2358 18.5685 4.48773 18.9965 4.35936 18.8018ZM3.53827 6.18644C3.55539 6.17238 3.60107 6.14682 3.79241 6.11069C3.73472 6.12666 3.61444 6.15936 3.53827 6.18644ZM15.8362 1.82912C15.7657 1.71699 15.5963 1.50642 15.6407 1.57686C15.6482 1.58134 15.8338 1.82979 15.8362 1.82912ZM1.24937 16.0493C1.24475 16.0853 1.69175 16.6772 1.5447 16.4671C1.48294 16.4142 1.13772 15.8412 1.24937 16.0493ZM1.36601 12.2673C1.33864 12.3252 1.2367 12.5772 1.23806 12.583C1.23715 12.6028 1.36017 12.2946 1.36601 12.2673ZM15.4137 1.31332C15.4063 1.29333 15.0947 1.06097 15.1241 1.0941C15.1913 1.13868 15.4565 1.35257 15.4137 1.31332ZM27.647 14.3461C27.6361 14.3817 27.6118 14.4213 27.6075 14.4334C27.6062 14.465 27.3566 15.0807 27.4419 14.8401C27.4509 14.8171 27.5916 14.4853 27.6722 14.1989C27.7337 14.005 27.7619 13.8412 27.7689 13.7975C27.7915 13.7587 27.7224 14.0728 27.6793 14.1918C27.6742 14.2091 27.672 14.2169 27.6702 14.2234C27.6656 14.2399 27.6754 14.2524 27.6471 14.3458C27.647 14.3459 27.647 14.346 27.647 14.3461ZM4.54196 6.05264C4.57063 6.02506 5.3163 6.12734 5.30209 6.15333C5.05322 6.09335 4.79711 6.05905 4.54196 6.05264ZM4.16467 6.06035C4.00618 6.06666 4.37578 6.03379 4.48675 6.04407C4.48791 6.04727 4.18673 6.05605 4.16467 6.06035ZM0.881216 13.6666C0.869096 13.742 0.926856 13.5137 0.919559 13.5658C0.913651 13.5988 0.877435 13.7683 0.87422 13.824C0.872472 13.8404 0.913943 13.6648 0.92364 13.6177C0.937022 13.5472 0.913264 13.6137 0.929292 13.5363C0.984983 13.2758 1.05761 13.0543 1.14044 12.8167C1.14795 12.7951 1.08259 12.9609 1.14758 12.7758C1.1588 12.745 1.22595 12.5859 1.31801 12.3673C1.35863 12.2527 1.40359 12.1443 1.45296 12.0372L1.56372 11.8134L1.39631 11.6158C1.20289 11.393 1.05775 11.0993 0.933317 10.6604C0.927411 10.6855 1.06821 11.1163 1.08709 11.1359C1.15352 11.2863 1.25546 11.473 1.38579 11.625L1.54718 11.8154L1.4404 12.0311C1.21885 12.4807 1.02814 13.0155 0.942779 13.3821C0.908954 13.5252 0.932193 13.4572 0.918815 13.5182C0.909231 13.5658 0.906884 13.5076 0.881216 13.6666ZM15.8823 1.88622C15.8576 1.82211 15.7221 1.64157 15.6289 1.53451C15.6532 1.57754 15.8086 1.76213 15.8823 1.88622ZM1.48262 7.86031C1.44113 7.92546 1.32433 8.12541 1.31953 8.14521C1.31038 8.16808 1.4784 7.87831 1.48262 7.86031ZM25.5514 17.4135C25.546 17.4192 25.4023 17.5308 25.3961 17.5341C25.2616 17.6264 25.6928 17.29 25.5514 17.4135ZM21.4724 18.6041C21.3291 18.5931 21.1937 18.5796 21.1469 18.5628C21.2355 18.5777 21.4883 18.5991 21.4724 18.6041ZM16.1865 21.9805C16.2161 21.9939 15.8224 22.036 15.7497 22.0287C15.7767 22.029 16.1651 21.9808 16.1865 21.9805ZM3.49891 6.15396C3.73241 6.08927 3.6798 6.08465 3.83353 6.06267C3.85937 6.06106 3.94463 6.08258 3.68217 6.12318C3.63523 6.13314 3.81377 6.07272 3.49891 6.15396ZM3.28109 17.7093C3.21707 17.6959 3.03571 17.6194 2.91399 17.5589C2.94437 17.5683 3.19031 17.6788 3.28109 17.7093ZM14.8381 0.924863C14.7507 0.854435 14.2657 0.773421 14.3837 0.805612C14.4029 0.800024 14.7783 0.886983 14.8381 0.924863ZM27.1602 11.9411C27.3148 12.0915 27.0125 11.7621 26.8893 11.6821C26.9426 11.7214 27.1523 11.9292 27.1602 11.9411ZM17.5153 21.4975C17.507 21.5038 17.2908 21.6142 17.281 21.617C17.1011 21.6978 17.7075 21.3872 17.5153 21.4975ZM22.9135 18.5872C22.8273 18.6151 22.2595 18.6544 22.1269 18.6402C22.2551 18.6407 23.0179 18.5706 22.9135 18.5872ZM2.60723 6.59486C2.74897 6.49492 2.89384 6.41328 3.0369 6.34724C3.00716 6.36049 2.62205 6.58162 2.60723 6.59486ZM16.7143 21.8527C16.7024 21.8567 16.6906 21.8598 16.6793 21.8634C16.6912 21.8598 16.7029 21.8563 16.7143 21.8527ZM0.827421 9.99199C0.829777 10.1381 0.842716 10.1059 0.842084 10.0975C0.83923 9.98905 0.828876 9.82778 0.827421 9.99199ZM15.804 1.73762C15.7872 1.69135 15.6288 1.50001 15.5335 1.40132C15.559 1.43617 15.7391 1.64237 15.804 1.73762ZM5.77918 20.5196C5.91474 20.6553 5.31994 20.1588 5.21923 20.0168C5.21099 20.0121 5.75337 20.512 5.77918 20.5196ZM26.6566 11.4836C26.6515 11.4654 26.3755 11.2962 26.4304 11.3379C26.4668 11.3623 26.6615 11.4923 26.6566 11.4836ZM4.96209 19.7152C4.91376 19.6618 4.81477 19.5207 4.8563 19.5651C4.90947 19.6225 4.97427 19.7289 4.96209 19.7152ZM0.811745 14.7559C0.807111 14.7903 0.880756 15.1962 0.862404 15.0259C0.849937 14.9085 0.836561 14.8919 0.832893 14.864C0.819665 14.8324 0.809331 14.1645 0.811745 14.7559ZM9.82351 21.3898C9.66612 21.4328 9.4729 21.4678 9.30535 21.4927C9.3732 21.4808 9.755 21.403 9.82351 21.3898ZM27.4956 12.3362C27.5147 12.2838 26.8099 11.5401 27.2042 11.9676C27.2392 11.9859 27.5536 12.4311 27.4956 12.3362ZM3.49891 6.15396C3.46921 6.16279 3.43608 6.17275 3.39685 6.1851C3.43564 6.17233 3.46891 6.16251 3.49891 6.15396ZM1.41054 7.93701C1.43391 7.88265 1.28471 8.13806 1.25197 8.21615C1.24429 8.2434 1.40479 7.94298 1.41054 7.93701ZM9.29397 21.5036C9.19806 21.522 9.02124 21.5382 8.9014 21.5461C8.92139 21.5414 9.25157 21.5065 9.29397 21.5036ZM15.4625 22.0476C15.2821 22.0309 15.0673 21.9781 15.0626 21.9835C15.0593 21.9814 15.0512 21.9781 15.0376 21.973C15.0234 21.9695 14.8385 21.9147 14.7629 21.8779C14.5361 21.7657 14.9742 21.9872 15.3442 22.0283C15.7131 22.0631 15.9731 22.0922 15.2619 22.0352C15.3287 22.0421 15.3953 22.0462 15.4625 22.0476ZM23.6712 18.441C23.7801 18.4214 24.0684 18.3069 23.9913 18.3303C23.9402 18.3505 23.563 18.4648 23.6712 18.441ZM19.5868 19.9287C19.6126 19.9065 19.8254 19.676 19.8265 19.6664C19.7002 19.7959 19.4717 20.0335 19.5868 19.9287ZM24.4674 18.149C24.5307 18.1206 24.6025 18.0677 24.5952 18.0707C24.5306 18.0988 24.3588 18.1912 24.4674 18.149ZM3.01424 6.30226C2.92174 6.33788 2.65339 6.51114 2.60478 6.56137C2.59323 6.56721 2.56259 6.58525 2.51037 6.62041C2.51053 6.6203 2.51068 6.62018 2.51084 6.62006C2.46755 6.63563 1.94031 7.08143 1.68595 7.46183C1.45883 7.78586 1.34993 7.95623 1.69467 7.4682C1.73677 7.41197 1.78532 7.34952 1.84264 7.2806C1.8787 7.23888 1.82276 7.28738 1.96989 7.12176C1.97983 7.11092 1.99011 7.10969 2.0214 7.07637C2.08497 6.99305 2.50312 6.62913 2.59586 6.57205C2.59738 6.57257 2.60395 6.56945 2.61708 6.56178C2.72839 6.48727 3.08282 6.26833 3.01424 6.30226ZM19.1396 20.3577C19.1881 20.318 19.332 20.1802 19.3425 20.1612C19.2693 20.2286 19.0276 20.4507 19.1396 20.3577ZM27.5002 12.2965C27.4456 12.1944 27.2463 11.9716 27.3 12.0442C27.3404 12.0843 27.57 12.4098 27.5002 12.2965ZM20.4975 18.8983C20.0279 19.4641 20.3876 19.0356 20.3237 19.1284C20.3839 19.0508 20.4401 18.9762 20.4975 18.8983ZM6.55721 6.01042C6.55668 6.1236 6.53596 5.99237 6.54714 5.86226C6.55062 5.8219 6.55752 5.94686 6.55721 6.01042ZM8.64232 2.24163C8.5571 2.20774 8.97934 2.29884 8.8132 2.27609C8.80587 2.27326 8.64672 2.24116 8.64232 2.24163ZM6.68416 4.44507C6.68059 4.52383 6.67056 4.57334 6.63581 4.79105C6.68303 4.46836 6.62374 4.76471 6.68416 4.44507ZM15.0642 21.9851C15.0632 21.9844 15.0623 21.9839 15.0626 21.9835C15.0637 21.9842 15.0642 21.9847 15.0642 21.9851ZM25.0502 17.8229C25.1315 17.7839 25.336 17.6396 25.2696 17.6748C25.2641 17.6789 25.0779 17.7987 25.0502 17.8229ZM2.60478 6.56137C2.61513 6.55621 2.61092 6.56035 2.59586 6.57205C2.59444 6.57156 2.59781 6.56778 2.60478 6.56137ZM23.8469 18.4024C23.8531 18.3963 23.49 18.4998 23.4733 18.5014C23.2641 18.565 23.6992 18.4569 23.8469 18.4024ZM25.5539 10.8399C25.5353 10.8329 25.6471 10.8981 25.7206 10.9238C25.778 10.9435 25.6245 10.8653 25.5539 10.8399ZM6.86372 3.72797C6.90047 3.6142 6.9618 3.459 6.98156 3.43485C6.94853 3.50551 6.86774 3.73146 6.86372 3.72797ZM8.47967 2.21658C8.35314 2.2165 8.08179 2.24893 7.92595 2.32066C7.91173 2.29323 8.35618 2.19285 8.47967 2.21658ZM3.30416 6.18323C3.29442 6.18272 3.02649 6.2938 3.06698 6.2871C3.12286 6.27093 3.38153 6.15836 3.30416 6.18323ZM26.085 11.0986C26.2077 11.1571 25.9404 10.9931 25.8028 10.9477C25.7337 10.922 26.0659 11.0863 26.085 11.0986ZM25.6861 17.3678C25.8195 17.2486 25.4743 17.5277 25.4284 17.5683C25.4945 17.5202 25.6393 17.4108 25.6861 17.3678ZM19.9607 19.5697C20.3674 19.1526 20.1194 19.3589 20.0561 19.4379C20.0474 19.449 19.9509 19.5799 19.9607 19.5697ZM13.5989 0.779587C13.5257 0.796254 13.8037 0.759532 13.8389 0.750917C13.8604 0.741571 13.6464 0.765366 13.5989 0.779587ZM13.1349 20.3044C13.147 20.3251 13.1591 20.3455 13.1711 20.3654C13.1618 20.3506 13.1499 20.3309 13.1349 20.3044ZM26.81 16.1814C26.5442 16.4863 26.5873 16.463 26.5665 16.4921C26.5189 16.552 26.4008 16.6798 26.3067 16.7866C26.4123 16.6625 26.5126 16.5351 26.6087 16.404C26.5459 16.5216 25.7685 17.3127 25.7392 17.3154C25.7214 17.3449 25.9767 17.1087 25.9833 17.1C25.9946 17.0906 26.0503 17.0691 26.0739 17.0467C26.1241 17.0212 26.7318 16.3124 26.81 16.1814ZM21.0941 18.6193C21.0327 18.6087 21.0011 18.5988 20.9739 18.5922L20.7757 18.5586L20.6477 18.724C20.6389 18.7338 20.6311 18.7431 20.6233 18.7546C20.6151 18.7666 20.621 18.7738 20.5923 18.8149C20.6138 18.7864 20.635 18.7582 20.6558 18.7301L20.78 18.5696L20.9723 18.6022C21.0131 18.6083 21.0537 18.614 21.0941 18.6193ZM27.1665 15.5552C27.2341 15.4627 26.9728 15.8997 26.9587 15.9111C26.9067 15.9811 27.1165 15.6326 27.1665 15.5552ZM24.0281 18.3476C24.0476 18.3448 24.4037 18.2006 24.3979 18.1931C24.3052 18.2377 23.8232 18.415 24.0281 18.3476ZM20.5547 18.8645C20.4672 18.9764 20.293 19.1727 20.3217 19.1588C20.3218 19.1587 20.3219 19.1585 20.3221 19.1584C20.4032 19.0591 20.4767 18.9662 20.5547 18.8645ZM26.4983 11.3073C26.2966 11.1562 26.3861 11.2396 26.5662 11.3672C26.6269 11.3966 26.5311 11.3322 26.4983 11.3073ZM25.7965 10.9071C25.7388 10.8646 25.0498 10.6109 25.151 10.6641C25.1872 10.6771 25.5847 10.8172 25.6008 10.8283C25.6272 10.841 25.4998 10.7995 25.7059 10.8857C25.6956 10.8762 25.8181 10.9182 25.7965 10.9071ZM26.3286 11.1864C26.1192 11.0466 26.0535 11.0494 26.2191 11.1393C26.2832 11.1752 26.3581 11.2066 26.3286 11.1864ZM27.1324 11.7925C27.0729 11.7284 26.8998 11.5695 26.7618 11.4807C26.9358 11.6124 27.098 11.7563 27.242 11.9128C27.2629 11.9269 27.1857 11.8471 27.1319 11.7921C27.1321 11.7922 27.1322 11.7924 27.1324 11.7925ZM9.85008 2.6119C9.68609 2.505 10.0765 2.7333 10.0962 2.75362C10.1428 2.79185 9.92169 2.65653 9.85008 2.6119ZM12.0537 1.12878C12.0026 1.15625 11.9638 1.1663 11.86 1.24098C11.9718 1.17756 12.086 1.11685 12.2006 1.06045C12.2773 0.994708 12.1095 1.09817 12.0537 1.12878ZM11.6043 1.34227C11.6192 1.33168 11.5195 1.36418 11.7259 1.24559C11.8609 1.16098 11.1644 1.67924 11.0444 1.78081C11.1711 1.66284 11.4768 1.43438 11.6043 1.34227ZM10.358 2.24135C10.3475 2.24677 10.5853 2.00864 10.6152 1.98507C10.7694 1.85176 10.4021 2.20917 10.358 2.24135ZM11.1546 1.5305C11.0283 1.6245 11.2974 1.40374 11.3844 1.34567C11.3949 1.34331 11.1732 1.51519 11.1546 1.5305ZM7.91387 1.78813C7.73054 1.82378 7.59656 1.93098 7.85566 1.8212C7.86797 1.81634 7.92155 1.78672 7.91387 1.78813ZM10.5717 1.99137C10.69 1.88762 10.4385 2.12914 10.3643 2.20179C10.3525 2.20473 10.5536 2.00569 10.5717 1.99137ZM7.77442 1.78491C7.53479 1.86868 7.64047 1.88105 7.66766 1.86809C7.78007 1.80681 8.20379 1.69122 8.29213 1.69407C7.65048 1.79563 7.88996 1.76825 7.77442 1.78491ZM6.90879 2.49429C6.77872 2.6722 7.12884 2.23113 7.21764 2.15942C7.13055 2.23058 6.94161 2.44195 6.90879 2.49429ZM6.32387 3.66637C6.28562 3.77494 6.19836 4.10483 6.19563 4.16207C6.21841 4.03977 6.31474 3.71418 6.32387 3.66637ZM6.23111 3.91045C6.17713 4.08216 6.19637 4.13089 6.23754 3.92819C6.23921 3.92034 6.23332 3.90422 6.23111 3.91045ZM6.03706 4.89586C6.01155 5.00982 6.02687 5.14664 6.0477 4.95813C6.05418 4.90265 6.03992 4.88374 6.03706 4.89586ZM7.46473 1.87718C7.30019 1.97244 7.12267 2.1322 7.44932 1.90735C7.33174 1.98345 7.22367 2.07262 7.12755 2.16844C7.52099 1.84311 7.50614 1.87353 7.63523 1.79997C7.8314 1.71631 7.82413 1.75353 7.78744 1.77235C7.93497 1.66576 8.67624 1.59796 9.05369 1.73118C8.72488 1.62139 8.10973 1.59242 7.76061 1.74185C7.66037 1.77809 7.57126 1.82889 7.49324 1.87307C7.36952 1.94593 7.47376 1.87201 7.46537 1.8768C7.46516 1.87692 7.46495 1.87705 7.46473 1.87718ZM6.17426 5.79728C5.85167 5.6428 6.04806 5.75273 6.23367 5.83751C6.24169 5.84089 6.18182 5.80095 6.17426 5.79728ZM10.1875 2.24824C10.5232 1.93479 10.2765 2.1595 10.9866 1.51345C10.6893 1.7855 10.977 1.53687 10.9214 1.59283C10.8767 1.63654 10.6952 1.78977 10.8061 1.7074C10.6566 1.80908 10.1012 2.36667 10.0835 2.39438C10.0837 2.39415 10.0839 2.39391 10.0842 2.39367C10.0697 2.40801 10.0828 2.35208 10.1875 2.24824ZM6.25105 3.64566C6.18383 3.74775 6.22245 3.80678 6.13977 4.02161C6.09878 4.32617 6.36007 3.20562 6.48517 3.09692C6.01045 4.26179 6.85046 2.34765 6.44937 3.13314C6.78953 2.48177 6.54984 2.91363 6.59365 2.8083C6.63838 2.69348 6.89498 2.34804 6.87663 2.36045C6.87647 2.36064 6.87632 2.36083 6.87617 2.36102C6.70979 2.56889 6.57953 2.79478 6.47226 3.0262C6.60389 2.81411 6.37315 3.27763 6.30174 3.4371C6.28347 3.50614 6.26625 3.57686 6.25105 3.64566ZM6.91766 2.37846C6.88856 2.3909 6.5891 2.86687 6.62123 2.84066C6.63501 2.7662 7.12582 2.12885 6.91766 2.37846ZM9.23139 1.76548C9.04013 1.69845 8.73114 1.63617 8.61644 1.64132C8.8229 1.65472 9.1248 1.73899 9.23139 1.76548ZM2.65662 5.8297C2.43418 5.94866 3.13496 5.61428 2.92796 5.70129C2.91724 5.70258 2.66595 5.82143 2.65662 5.8297ZM6.11585 4.18985C6.05581 4.43222 6.11111 4.32294 6.14135 4.14095C6.14313 4.13038 6.11869 4.17864 6.11585 4.18985ZM10.4483 1.98165C10.4496 1.96131 10.9511 1.51927 11.0476 1.45024C10.9946 1.4925 10.4357 1.99782 10.4483 1.98165ZM9.56902 1.86002C9.22301 1.66127 8.65384 1.59996 8.59057 1.60667C8.52817 1.60152 8.62717 1.59535 8.61306 1.59411C8.58381 1.56471 7.90664 1.62349 7.87765 1.66377C7.85523 1.6711 7.97893 1.65409 7.8455 1.69968C7.97204 1.64726 8.35404 1.57401 8.69104 1.62218C9.0319 1.66194 9.31027 1.77186 9.33852 1.77953C9.38153 1.7961 9.06513 1.64992 9.56841 1.85976C9.56861 1.85984 9.56882 1.85993 9.56902 1.86002ZM8.4356 1.59652C8.60087 1.60274 8.13504 1.60659 8.01979 1.64354C7.76828 1.684 8.41126 1.57046 8.4356 1.59652ZM7.34989 1.91584C7.29366 1.93413 6.93619 2.26257 6.9275 2.30523C7.06888 2.13233 7.45102 1.84666 7.34989 1.91584ZM5.93729 5.63344C5.82788 5.58937 5.52143 5.4933 5.50053 5.49833C5.61481 5.5226 5.9171 5.63093 5.93729 5.63344ZM12.255 0.576984C12.0821 0.659208 12.4749 0.452377 12.5985 0.407683C12.6048 0.407288 12.2682 0.567382 12.255 0.576984ZM6.03657 4.2166C5.99264 4.28036 5.8438 5.64283 5.87276 5.83483C5.85355 5.64677 6.0054 4.29949 6.04221 4.24039C6.04501 4.22249 6.03868 4.20822 6.03657 4.2166ZM7.71516 1.66561C7.8474 1.6032 7.94909 1.59548 7.965 1.59152C8.141 1.54202 8.51129 1.53687 8.42959 1.54962C8.11077 1.5069 7.44846 1.79327 7.71516 1.66561ZM5.859 5.55164C5.39771 5.39865 6.27512 5.71895 6.16162 5.67588C6.1554 5.66983 5.90679 5.56508 5.859 5.55164ZM6.06637 4.06507C6.04099 3.95789 6.529 2.62444 6.74006 2.4498C6.63027 2.63385 6.5322 2.77274 6.41538 3.02424C6.38462 3.09231 6.39939 3.07709 6.39606 3.08438C6.34494 3.20309 6.37581 3.11116 6.34509 3.1839C6.30064 3.22707 6.03191 4.20816 6.06637 4.06507ZM7.79115 1.63019C7.83062 1.61139 8.10056 1.52838 8.36065 1.52393C8.62198 1.51338 8.86393 1.56246 8.88311 1.56661C9.02086 1.60421 8.78487 1.53978 8.48099 1.53218C8.17827 1.51666 7.82664 1.6149 7.79115 1.63019ZM6.02466 4.1859C6.02783 4.03531 6.2345 3.36903 6.11321 3.82968C6.10185 3.87319 6.04675 4.05719 6.02466 4.1859ZM5.91375 5.55166C5.89443 5.53596 5.40594 5.39118 5.39492 5.40213C5.46926 5.40458 6.17118 5.64753 5.91375 5.55166ZM6.16925 5.63197C6.15817 5.62812 6.2642 5.68423 6.04185 5.58955C6.02332 5.58401 5.9951 5.5488 5.70651 5.46304C5.64671 5.44568 5.55492 5.43013 5.56095 5.4324C5.86032 5.50136 6.74383 5.90416 6.16925 5.63197ZM7.8053 1.61423C7.75106 1.62658 7.87327 1.56583 7.99067 1.55032C8.04072 1.54472 7.95067 1.56769 7.8053 1.61423ZM4.33487 5.28855C4.63134 5.26184 3.69834 5.31451 3.65414 5.35301C3.6843 5.34116 4.30494 5.27856 4.33487 5.28855ZM12.6332 0.314912C12.633 0.315001 12.6328 0.31509 12.6325 0.315179C12.8626 0.225028 12.7237 0.290176 12.7345 0.285792C13.2352 0.116323 13.1026 0.156568 13.1809 0.127322C13.3547 0.0783857 13.3295 0.100746 13.6308 0.0407861C13.1338 0.14551 13.587 0.0533262 13.6025 0.0616913C13.6611 0.073352 12.942 0.183865 12.7224 0.298608C12.6904 0.31103 12.9307 0.232637 12.8494 0.26606C12.5824 0.363599 11.7764 0.706717 12.6332 0.314912ZM8.08001 1.53182C8.14553 1.51283 8.42043 1.48392 8.64091 1.51082C8.85659 1.53313 9.02535 1.5823 8.90174 1.55918C8.88148 1.55539 8.63907 1.51029 8.41544 1.51346C8.18628 1.51286 7.98752 1.55733 8.08001 1.53182ZM14.7957 22.6784C14.5807 22.6248 15.0708 22.7772 15.1687 22.7748C15.215 22.7817 14.8879 22.7072 14.7957 22.6784ZM18.1055 22.0907C18.3139 21.9663 18.5063 21.7962 18.2566 21.9623C18.2304 21.98 18.0796 22.1006 18.1055 22.0907ZM4.49967 20.3672C4.65771 20.5645 4.66536 20.5359 4.54205 20.3995C4.4987 20.3505 4.49473 20.3609 4.49967 20.3672ZM12.5177 20.73C12.5288 20.7536 12.6838 20.997 12.6856 20.9873C12.623 20.8911 12.4404 20.5879 12.5177 20.73ZM4.44428 20.3082C4.54737 20.4211 4.38464 20.209 4.26369 20.0808C4.32021 20.1512 4.4331 20.2964 4.44428 20.3082ZM5.88348 4.68828C5.87379 4.81372 5.83211 5.16124 5.82247 5.36383C5.80523 5.38492 5.8601 4.83187 5.88348 4.68828ZM17.1641 22.5324C17.381 22.4402 16.9067 22.6111 16.9531 22.6031C16.9595 22.6027 17.1557 22.5371 17.1641 22.5324ZM0.0306996 14.2608C0.0284247 14.4325 0.0714333 13.8906 0.049047 14.0388C0.0468137 14.0467 0.0296871 14.249 0.0306996 14.2608ZM0.594613 12.0094C0.537882 12.1213 0.351611 12.622 0.430879 12.4308C0.439185 12.4036 0.596876 12.0153 0.594613 12.0094ZM13.1929 0.114676C13.119 0.117876 13.5264 0.022755 13.5886 0.0216847C13.6111 0.0161043 13.2848 0.102591 13.1929 0.114676ZM5.73344 21.4685C5.84486 21.5449 6.14248 21.7212 6.2019 21.7419C6.05132 21.6696 5.70417 21.4356 5.73344 21.4685ZM16.1116 22.8001C16.3264 22.793 16.6729 22.7059 16.5827 22.7086C16.1961 22.7912 16.6382 22.7287 16.1116 22.8001ZM3.92301 19.6518C3.98091 19.7377 4.04083 19.7903 4.03477 19.7806C3.97689 19.687 3.87045 19.5628 3.92301 19.6518ZM10.9115 21.861C10.9204 21.8675 11.229 21.7328 11.1853 21.7453C11.1716 21.7511 10.9051 21.8584 10.9115 21.861ZM3.32497 5.39031C3.1656 5.4268 3.64447 5.28744 3.79312 5.28146C3.86482 5.27531 3.34273 5.37671 3.32497 5.39031ZM2.10323 18.0348C2.08001 18.0408 2.55939 18.2948 2.37534 18.1849C2.32965 18.16 2.10891 18.0355 2.10323 18.0348ZM0.0892438 13.5355C0.0657292 13.7158 0.113449 13.4331 0.185328 13.1582C0.254074 12.8887 0.341389 12.6279 0.274197 12.8097C0.255935 12.8347 0.0837667 13.5048 0.0892438 13.5355ZM0.484354 11.7166C0.518541 11.775 0.45963 11.7675 0.35207 11.5131C0.338085 11.4804 0.420139 11.6263 0.409746 11.5992C0.391407 11.5874 0.178425 11.0365 0.181572 11.0085C0.17238 10.9809 0.170545 11.0172 0.160927 10.9891C0.146831 10.958 0.0703885 10.6051 0.0514869 10.418C0.0114338 10.0661 0.0136628 10.0279 0.0101836 9.99845C0.0082937 9.91479 0.0150912 9.77263 0.0282206 9.60249C0.0560899 8.72717 0.627987 7.54106 1.04437 7.04655C0.700921 7.50996 0.435518 8.01078 0.252865 8.57272C0.271522 8.39602 0.0448301 9.42111 0.170904 8.81993C0.134922 8.95356 -0.0297024 9.63004 0.0507917 10.3148C0.109634 11.0005 0.427246 11.624 0.483985 11.7159C0.484109 11.7161 0.484231 11.7163 0.484354 11.7166ZM18.9022 21.5708C18.7948 21.6727 19.3882 21.2054 19.422 21.1478C19.3481 21.2135 18.9186 21.5611 18.9022 21.5708ZM15.5848 22.8804C15.5078 22.8758 15.4295 22.9179 15.0241 22.8304C15.0238 22.8304 15.0234 22.8303 15.023 22.8302C14.9051 22.8012 15.0416 22.8243 15.0203 22.8174C15.0104 22.818 14.6529 22.7133 14.9534 22.7871C15.4195 22.8738 14.9934 22.8185 15.2431 22.8589C15.2739 22.8719 15.7499 22.881 15.7211 22.8714C15.7184 22.8717 15.5765 22.8732 15.5528 22.8702C15.4642 22.8616 15.5079 22.8556 15.4954 22.8547C15.4539 22.8726 14.7078 22.7511 14.6124 22.679C14.5953 22.6706 14.8804 22.7742 15.1888 22.8161C15.4956 22.8634 15.8122 22.8475 15.8353 22.8471C15.8652 22.8469 15.8536 22.8692 15.8848 22.8697C15.9032 22.8772 16.3837 22.8092 16.4419 22.7912C16.4598 22.7882 16.4734 22.7859 16.4834 22.7843C16.4129 22.7963 16.8307 22.6931 16.8187 22.6997C16.813 22.7069 16.5266 22.78 16.5144 22.7796C16.5098 22.7804 16.5057 22.781 16.502 22.7816C16.5727 22.8036 15.5488 22.907 15.7691 22.8923C15.4666 22.8999 15.8121 22.8768 15.5848 22.8804ZM14.1704 22.5223C14.1993 22.535 14.2282 22.5472 14.2571 22.5589C13.7715 22.33 13.3097 21.921 12.9495 21.4694C12.8571 21.3527 12.952 21.4974 12.8346 21.3386C12.7467 21.2177 12.6629 21.0698 12.7121 21.1367C12.7227 21.1534 12.8967 21.4096 13.0018 21.5303C13.3081 21.8793 13.2497 21.7797 13.2654 21.8004C13.2845 21.822 13.4939 22.0369 13.6245 22.1369C13.9583 22.3869 14.1154 22.5009 14.6619 22.7115C14.3462 22.6026 14.5029 22.6903 14.1704 22.5223ZM0.471272 16.4121C0.452816 16.4004 0.30766 16.0937 0.265111 15.9771C0.276541 15.9941 0.407645 16.3071 0.471272 16.4121ZM24.1698 5.8734C24.1107 5.7892 24.5134 6.44868 24.4153 6.27037C24.3988 6.22976 24.2289 5.94973 24.1698 5.8734ZM25.0113 9.10577C25.0124 9.2059 25.0313 8.80298 25.0192 8.8057C25.0175 8.80529 25.0127 9.09165 25.0113 9.10577ZM9.76252 22.2662C9.74481 22.2717 9.47385 22.3175 9.4651 22.3167C9.28549 22.3405 10.1704 22.1745 9.76252 22.2662ZM27.1922 10.8276C26.9073 10.6153 27.7437 11.2851 27.4953 11.0714C27.4848 11.0571 27.2076 10.8345 27.1922 10.8276ZM28.2383 11.9295C28.1958 11.8476 27.9605 11.5277 27.9509 11.5296C27.9459 11.523 28.2117 11.8901 28.2383 11.9295ZM3.84484 19.62C3.85313 19.6608 3.60142 19.2573 3.51954 19.1151C3.5113 19.0772 3.74444 19.4811 3.84484 19.62ZM6.02706 21.7357C5.12715 21.2048 4.88453 20.8582 4.9317 20.9187C4.99463 20.9605 5.36704 21.3594 6.14005 21.7903C6.13811 21.7991 6.14359 21.8003 6.02706 21.7357ZM4.09095 19.9795C4.14372 20.0356 4.27686 20.211 4.38133 20.3341C4.35468 20.3145 4.15957 20.071 4.09095 19.9795ZM23.5667 5.17384C23.6831 5.24642 24.0713 5.70247 23.9948 5.62741C23.9878 5.60119 23.5326 5.13817 23.5667 5.17384ZM9.59556 22.3102C9.64647 22.3213 9.02953 22.3999 8.98063 22.392C8.78897 22.3999 9.54859 22.3339 9.59556 22.3102ZM2.05299 18.0778C1.95068 18.0295 1.69157 17.8483 1.53298 17.717C1.60958 17.7713 1.90385 17.9901 2.05299 18.0778ZM3.39298 18.6725C3.37936 18.6715 3.10618 18.5861 3.09381 18.5791C2.87335 18.5001 3.6474 18.7393 3.39298 18.6725ZM12.278 0.364416C12.2859 0.359059 12.4793 0.26958 12.4868 0.267817C12.6636 0.196723 12.0836 0.466554 12.278 0.364416Z" fill="#FCBD00"/>
</svg>
